<svg opacity="0.9"

     preserveAspectRatio="xMinYMin meet"
     viewBox="0 0 208 208"
     fill="none" xmlns="http://www.w3.org/2000/svg">


    <defs>
        <filter id="shadowW" filterUnits="userSpaceOnUse">
            <feDropShadow dx="-2" dy="-1" stdDeviation="5" flood-color="rgba(0,0,0,0.5)"/>
        </filter>
    </defs>
    <g filter="url(#shadowW)">

        <path d="M23.9835 174.59L113.41 157.735L225.224 191.671C225.224 191.671 250.259 479.463 243.525 478.31C236.655 477.167 -7.79434 482.039 -8.17876 476.943C-8.56308 471.849 -34.4445 341.701 -34.4445 341.701L23.9835 174.59Z"
              fill="darkgrey"/>
        <path d="M-54.5558 212.781C-85.688 282.842 -94.2122 303.839 -94.2122 303.839L-213.504 213.002C-214.953 197.465 -218.637 181.68 -225.636 167.806C-234.412 150.606 -246.154 149.138 -259.595 136.166C-267.368 128.583 -275.073 140.242 -267.3 147.825L-259.338 156.087C-258.869 160.482 -255.518 171.861 -254.634 176.226C-267.475 165.702 -284.704 150.246 -300.665 144.25C-305.079 142.644 -308.958 144.46 -311.08 147.528C-314.628 148.211 -317.292 151.458 -317.858 154.963C-321.103 157.839 -322.625 163.354 -319.254 167.67C-321.407 170.323 -322.376 173.998 -320.433 177.728C-320.274 177.993 -320.127 178.12 -320.106 178.395C-320.997 179.432 -319.498 182.78 -320.337 184.506C-324.035 192.401 -309.357 221.757 -285.221 235.167C-277.291 250.355 -262.477 259.485 -261.354 259.677C-234.512 290.608 -141.301 400.999 -97.2451 436.169C-47.2868 476.158 -12.9855 418.735 10.6424 317.115C34.2598 215.358 37.6457 181.315 37.6457 181.315L116.374 158.482C14.4423 160.079 -23.2964 142.572 -54.5558 212.781Z"
              fill="darkgrey"/>
        <path d="M116.781 158.313L114.885 158.871L61.4974 174.391L38.0516 181.145C38.0516 181.145 34.6758 215.325 11.0481 316.945C9.47097 323.572 7.88344 330.061 6.27525 336.275C-22.5942 315.191 -52.217 295.131 -82.0946 275.368C-75.9632 261.197 -67.1116 240.867 -54.4359 212.493C-30.4015 158.477 -2.57835 156.516 55.793 157.512C72.5674 157.77 91.7239 158.403 114.133 158.096C114.98 158.309 115.807 158.247 116.781 158.313Z"
              fill="darkgrey"/>
        <path d="M113.269 157.745C175.26 159.023 252.771 143.897 266.382 199.504C279.867 255.26 288.576 280.774 295.899 320.932C303.221 361.091 322.043 408.689 271.897 417.595C221.75 426.502 106.238 444.495 106.238 444.495L78.8767 384.662C78.8767 384.662 170.648 343.813 200.242 332.303L185.17 211.448L113.269 157.745Z"
              fill="darkgrey"/>
        <path d="M292.122 302.108C260.506 305.187 228.942 308.953 198.219 316.533L185.178 211.585L140.855 178.374L114.874 158.871L114.144 158.372L113.266 157.746C127.138 158.084 141.774 157.534 156.283 157.131C206.726 155.818 255.78 156.271 266.252 199.654C277.643 246.012 285.665 271.578 292.122 302.108Z"
              fill="darkgrey"/>
        <path d="M108.001 172.269C119.623 168.485 130.939 164.308 142.395 160.12L112.224 101.608L68.8441 124.959C69.7222 125.585 79.0944 154.372 86.547 177.904C93.7406 175.977 100.965 174.463 108.001 172.269Z"
              fill="white"/>
        <path d="M99.3655 112.96C99.0934 111.18 98.8213 109.401 98.2722 107.642L68.9864 125.083C69.5682 125.455 73.8492 138.148 78.7406 153.426C89.4856 141.676 97.5757 127.773 99.3655 112.96Z"
              fill="darkgrey"/>
        <path d="M144.524 69.1209C143.075 53.5829 118.601 39.3668 99.9856 38.5556C91.9262 38.1943 89.5107 31.8684 86.0605 37.5291C77.5782 51.7392 49.6837 94.9694 52.2654 110.837C56.0862 133.951 84.5691 137.063 102.228 127.008C120.022 116.942 146.6 91.1195 144.524 69.1209Z"
              fill="white"/>
        <path d="M145.753 72.4915C147.93 68.3116 146.317 63.4483 142.804 60.944C142.656 60.8166 142.656 60.8166 142.507 60.6894C143.028 52.8957 136.915 47.1257 129.979 46.9567C129.007 45.0914 127.379 43.691 125.24 42.883C124.903 42.0778 124.575 41.4101 123.982 40.9009C122.651 39.7551 121.095 39.3187 119.441 39.4435C118.081 36.0843 115.925 33.2005 112.495 31.7977C110.348 30.8519 108.027 31.304 106.311 32.4027C102.006 28.5734 96.789 25.5051 91.8112 25.6038C89.736 25.6218 85.678 26.8973 84.2724 32.1268C82.1968 32.1449 80.3522 33.3917 79.5546 35.6676C78.427 39.0759 80.339 42.3935 83.1109 44.2613C84.719 45.3863 86.9841 46.0462 89.0391 45.7526C95.9026 52.2969 114.028 63.1149 118.148 62.6657C115.532 70.202 113.218 87.2698 122.007 88.1299C124.21 95.3028 116.99 107.894 121.368 112.688C129.639 104.863 137.246 95.5655 141.359 85.8391C141.496 85.8288 141.772 85.808 142.047 85.7872C148.14 83.9429 149.527 76.6377 145.753 72.4915Z"
              fill="darkgrey"/>
        <path d="M140.151 104.76C141.594 96.3432 132.67 86.3542 121.049 88.3387C116.251 96.3166 111.305 104.167 106.21 111.89C109.317 116.364 118.141 121.376 125.535 120.264C133.872 118.804 138.613 113.738 140.151 104.76Z"
              fill="white"/>
        <path d="M156.755 156.883C153.217 165.043 147.805 172.237 141.188 178.136C133.925 184.639 125.011 189.465 114.809 191.896C95.2214 196.558 72.2825 189.842 61.6836 174.164C58.5559 169.414 56.4778 163.894 56 157.561C72.7744 157.818 91.9311 158.451 114.34 158.144L113.462 157.519C127.463 157.709 142.098 157.159 156.755 156.883Z"
              fill="white"/>
    </g>

</svg>
